<svg id="도움말_버튼" data-name="도움말 버튼" xmlns="http://www.w3.org/2000/svg" xmlns:xlink="http://www.w3.org/1999/xlink" width="42" height="42" viewBox="0 0 42 42">
  <defs>
    <clipPath id="clip-path">
      <rect id="사각형_11525" data-name="사각형 11525" width="24" height="24" fill="none"/>
    </clipPath>
  </defs>
  <g id="사각형_11528" data-name="사각형 11528" fill="#fff" stroke="#d1d1d1" stroke-width="1">
    <rect width="42" height="42" rx="12" stroke="none"/>
    <rect x="0.5" y="0.5" width="41" height="41" rx="11.5" fill="none"/>
  </g>
  <g id="그룹_22488" data-name="그룹 22488" transform="translate(9 9)">
    <g id="그룹_22465" data-name="그룹 22465" clip-path="url(#clip-path)">
      <path id="패스_32741" data-name="패스 32741" d="M12,2.38A9.62,9.62,0,1,1,2.38,12,9.62,9.62,0,0,1,12,2.38M12,0A12,12,0,1,0,24,12,12,12,0,0,0,12,0"/>
      <path id="패스_32742" data-name="패스 32742" d="M13.3,11.2a2.646,2.646,0,0,0,1.464-2.255,1.986,1.986,0,0,0-1.992-1.981l-.105,0a2.072,2.072,0,0,0-2.134,2.009c0,.03,0,.06,0,.09h-2.1c.078-2.475,1.938-3.82,4.233-3.8,2.513-.021,4.194,1.483,4.194,3.717A3.714,3.714,0,0,1,14.885,12.3a2.971,2.971,0,0,0-1.623,2.967v.119H11.285v-.119c.02-2.532.772-3.3,2.017-4.075m-.949,5.619A1.355,1.355,0,0,1,13.7,18.182V18.2a1.322,1.322,0,0,1-1.3,1.345h-.046a1.357,1.357,0,0,1-1.385-1.327V18.2a1.39,1.39,0,0,1,1.385-1.385" transform="translate(-0.649 -0.405)"/>
    </g>
  </g>
</svg>
